<?xml version="1.0" encoding="iso-8859-1"?>
<!-- Generator: Adobe Illustrator 16.0.4, SVG Export Plug-In . SVG Version: 6.00 Build 0)  -->
<!DOCTYPE svg PUBLIC "-//W3C//DTD SVG 1.1//EN" "http://www.w3.org/Graphics/SVG/1.1/DTD/svg11.dtd">
<svg version="1.1" id="Layer_1" xmlns="http://www.w3.org/2000/svg" xmlns:xlink="http://www.w3.org/1999/xlink" x="0px" y="0px"
	 width="80px" height="80px" viewBox="0 0 80 80" style="enable-background:new 0 0 80 80;" xml:space="preserve">
<rect style="fill:none;" width="80" height="80"/>
<path style="fill:#D9D9D9;" d="M34.218,12.673L22.17,10.548c-0.9-2.09-1.909-4.429-2.172-5.012c-0.5-1.111-2.291-2.958-11.124-2.958
	C4.429,2.577,1.708,3.01,0,3.583V80h55.978c6.785-6.604,12.187-12.986,12.187-16.221c0-2.223,1.606-6.666-11.059-28.441
	C44.439,13.563,34.218,12.673,34.218,12.673z M49.758,61.557c-0.296,2.451-9.169,10.69-15.373,16.183
	c-0.304-4.318-0.4-7.984-0.167-10.404c1.176-12.191,4-22.664,4-22.664S50.216,57.78,49.758,61.557z"/>
<line style="fill:none;stroke:#000000;stroke-width:3;stroke-linecap:round;stroke-miterlimit:10;" x1="34.892" y1="13.5" x2="38.217" y2="44.671"/>
<g>
</g>
<g>
</g>
<g>
</g>
<g>
</g>
<g>
</g>
<g>
</g>
<g>
</g>
<g>
</g>
<g>
</g>
<g>
</g>
<g>
</g>
<g>
</g>
<g>
</g>
<g>
</g>
<g>
</g>
</svg>
