<?xml version="1.0" encoding="iso-8859-1"?>
<!-- Generator: Adobe Illustrator 16.0.4, SVG Export Plug-In . SVG Version: 6.00 Build 0)  -->
<!DOCTYPE svg PUBLIC "-//W3C//DTD SVG 1.1//EN" "http://www.w3.org/Graphics/SVG/1.1/DTD/svg11.dtd">
<svg version="1.1" id="Layer_1" xmlns="http://www.w3.org/2000/svg" xmlns:xlink="http://www.w3.org/1999/xlink" x="0px" y="0px"
	 width="80px" height="80px" viewBox="0 0 80 80" style="enable-background:new 0 0 80 80;" xml:space="preserve">
<rect style="fill:none;" width="80" height="80"/>
<g>
	<path style="fill:#D9D9D9;" d="M43.332,58.543c0,0,11.551,13.898,36.668,17.309V0H50.273
		C48.006,25.879,44.072,54.596,43.332,58.543z"/>
	<path style="fill:#D9D9D9;" d="M27.416,60.584c0.494-0.617,2.103-10.605,1.53-12.057C31.231,42.232,39.462,19.355,45.435,0H19.208
		c-3.059,19.326-7.132,41.159-8.028,45.92c-0.61,2.307-2.689,10.262-2.608,11.195C8.666,58.209,26.916,61.209,27.416,60.584z"/>
</g>
<g>
	<path style="fill:none;" d="M9.578,51.902c-0.016,0.105,0.272,0.839,2.029,1.806c1.786,0.982,4.376,1.784,7.106,2.201
		c1.389,0.211,2.75,0.318,4.045,0.318c4.239,0,5.822-1.119,5.868-1.42c0.002-0.017-0.006-0.052-0.023-0.097L9.63,51.801
		C9.599,51.841,9.582,51.875,9.578,51.902z"/>
	<path d="M28.989,50.949l-0.385,3.762h0c0.017,0.045,0.025,0.08,0.023,0.097c-0.046,0.301-1.629,1.42-5.868,1.42
		c-1.295,0-2.656-0.107-4.045-0.318c-2.73-0.417-5.32-1.219-7.106-2.201c-1.756-0.967-2.045-1.7-2.029-1.806
		c0.004-0.027,0.021-0.062,0.052-0.102l0.991-3.752c-2.336,0.646-3.768,1.819-4.009,3.401c-0.188,1.234,0.274,3.085,3.548,4.886
		c2.114,1.163,4.991,2.064,8.101,2.538c1.538,0.235,3.051,0.354,4.497,0.354c5.153,0,8.456-1.483,8.834-3.968
		C31.76,54.156,31.402,52.562,28.989,50.949z"/>
	<path style="fill:#B3B3B3;" d="M15.449,50.482c1.295,0,2.655,0.107,4.043,0.318c2.73,0.417,5.32,1.22,7.106,2.202
		c1.485,0.817,1.916,1.463,2.005,1.708h0l0.385-3.762c-0.287-0.191-0.597-0.384-0.945-0.575c-2.113-1.162-4.99-2.063-8.101-2.539
		c-1.537-0.233-3.049-0.353-4.495-0.353c-1.872,0-3.496,0.198-4.828,0.566L9.63,51.801C9.937,51.405,11.597,50.482,15.449,50.482z"
		/>
</g>
<g>
</g>
<g>
</g>
<g>
</g>
<g>
</g>
<g>
</g>
<g>
</g>
<g>
</g>
<g>
</g>
<g>
</g>
<g>
</g>
<g>
</g>
<g>
</g>
<g>
</g>
<g>
</g>
<g>
</g>
</svg>
