<?xml version="1.0" encoding="iso-8859-1"?>
<!-- Generator: Adobe Illustrator 16.0.4, SVG Export Plug-In . SVG Version: 6.00 Build 0)  -->
<!DOCTYPE svg PUBLIC "-//W3C//DTD SVG 1.1//EN" "http://www.w3.org/Graphics/SVG/1.1/DTD/svg11.dtd">
<svg version="1.1" id="Layer_1" xmlns="http://www.w3.org/2000/svg" xmlns:xlink="http://www.w3.org/1999/xlink" x="0px" y="0px"
	 width="80px" height="80px" viewBox="0 0 80 80" style="enable-background:new 0 0 80 80;" xml:space="preserve">
<rect style="fill:none;" width="80" height="80"/>
<path style="fill:#D9D9D9;" d="M71.156,65.816c0,0,5.031,5.498,8.604,10.537V40.735c-7.609-7.942-12.787-8.4-12.787-8.4
	L54.365,30.11c-0.941-2.186-2-4.634-2.275-5.245c-0.521-1.163-2.396-3.095-11.639-3.095c-9.242,0-11.363,1.788-12.192,2.964
	c-0.499,0.708-1.709,3.854-2.597,6.253C15.759,33.822,3.546,37.964,0.241,41.91V80h67.976
	C69.553,71.767,71.156,65.816,71.156,65.816z"/>
<path d="M38.375,31.625c-0.164,0-0.331-0.027-0.495-0.084c-6.84-2.39-10.115-4.745-9.732-6.999
	c0.392-2.309,3.604-3.167,11.852-3.167c9.542,0,11.725,1.292,12.065,3.23c0.395,2.247-2.693,4.579-9.18,6.93
	c-0.773,0.281-1.638-0.12-1.921-0.899c-0.282-0.778,0.12-1.639,0.898-1.921c3.017-1.095,5.967-2.606,6.956-3.519
	c-0.805-0.312-3.008-0.821-8.819-0.821c-5.485,0-7.688,0.455-8.543,0.753c1.106,0.938,4.228,2.466,7.414,3.581
	c0.782,0.273,1.194,1.129,0.921,1.911C39.575,31.238,38.995,31.625,38.375,31.625z"/>
<g>
</g>
<g>
</g>
<g>
</g>
<g>
</g>
<g>
</g>
<g>
</g>
<g>
</g>
<g>
</g>
<g>
</g>
<g>
</g>
<g>
</g>
<g>
</g>
<g>
</g>
<g>
</g>
<g>
</g>
</svg>
