<?xml version="1.0" encoding="iso-8859-1"?>
<!-- Generator: Adobe Illustrator 16.0.4, SVG Export Plug-In . SVG Version: 6.00 Build 0)  -->
<!DOCTYPE svg PUBLIC "-//W3C//DTD SVG 1.1//EN" "http://www.w3.org/Graphics/SVG/1.1/DTD/svg11.dtd">
<svg version="1.1" id="Layer_1" xmlns="http://www.w3.org/2000/svg" xmlns:xlink="http://www.w3.org/1999/xlink" x="0px" y="0px"
	 width="80px" height="80px" viewBox="0 0 80 80" style="enable-background:new 0 0 80 80;" xml:space="preserve">
<rect style="fill:none;" width="80" height="80"/>
<path style="fill:#D9D9D9;" d="M68.212,20.043C61.026,7.691,55.229,7.187,55.229,7.187L48.394,5.98
	c-0.511-1.185-1.083-2.512-1.231-2.843c-0.284-0.63-1.301-1.678-6.311-1.678s-6.161,0.969-6.61,1.607
	c-0.27,0.383-0.926,2.089-1.407,3.39c-5.88,1.683-13.265,4.216-14.16,6.528c-1.513,3.908-3.687,19.234-4.695,27.679
	c-0.92,7.709-3.6,22.076-4.06,24.522c-0.23,0.872-1.017,3.88-0.986,4.232c0.036,0.414,6.937,1.548,7.126,1.312
	c0.187-0.233,0.795-4.01,0.579-4.56c1.329-3.661,7.975-22.151,8.655-27.821c-0.252,10.461-2.837,29.591-3.216,31.608
	c0,0,5.672,6.83,18.152,6.83c12.478,0,18.403-6.83,18.403-6.83s-1.187-7.25-2.175-15.007c6.424-4.865,18.028-15.203,18.028-18.774
	C74.485,34.917,75.396,32.396,68.212,20.043z M64.045,34.917c-0.17,1.389-5.203,6.064-8.723,9.179
	c-0.171-2.45-0.226-4.53-0.094-5.902c0.667-6.917,2.269-12.857,2.269-12.857S64.304,32.774,64.045,34.917z"/>
<path d="M6.437,67.44l11.918-56.106c0.176-0.81,0.976-1.322,1.784-1.146c0.81,0.176,1.323,0.975,1.147,1.785L9.368,68.079
	c-0.177,0.809-0.976,1.323-1.785,1.146S6.26,68.249,6.437,67.44z"/>
<g>
</g>
<g>
</g>
<g>
</g>
<g>
</g>
<g>
</g>
<g>
</g>
<g>
</g>
<g>
</g>
<g>
</g>
<g>
</g>
<g>
</g>
<g>
</g>
<g>
</g>
<g>
</g>
<g>
</g>
</svg>
