<?xml version="1.0" encoding="iso-8859-1"?>
<!-- Generator: Adobe Illustrator 16.0.4, SVG Export Plug-In . SVG Version: 6.00 Build 0)  -->
<!DOCTYPE svg PUBLIC "-//W3C//DTD SVG 1.1//EN" "http://www.w3.org/Graphics/SVG/1.1/DTD/svg11.dtd">
<svg version="1.1" id="Layer_1" xmlns="http://www.w3.org/2000/svg" xmlns:xlink="http://www.w3.org/1999/xlink" x="0px" y="0px"
	 width="80px" height="80px" viewBox="0 0 80 80" style="enable-background:new 0 0 80 80;" xml:space="preserve">
<rect style="fill:none;" width="80" height="80"/>
<path style="fill:#D9D9D9;" d="M67.473,31.637C64,25.461,60.314,17.825,57.309,15.039c-3.008-2.788-4.307-3.993-6.949-5.019
	C47.719,8.992,37.56,8.733,36.533,6.089C35.505,3.449,36.093,0,36.093,0l-0.013,0H21.034c0.065,1.412,0.118,5.048-0.934,6.714
	c-1.32,2.091-10.234,5.062-14.855,7.262C3.006,15.042,1.234,16.265,0,18.278v58.047c1.025-3.071,5.648-13.269,5.648-16.241
	c0-3.154,0.513-5.502,0.806-7.043c0.295-1.541,1.395-6.015,1.615-7.408c0.22-0.588,0.88,1.174,1.101,2.348
	c0.219,1.172,1.759,4.4,0.219,14.891c-1.026,5.797-0.733,10.125-1.101,12.252C8.091,76.271,7.638,78.099,7.182,80h42.562
	c-0.082-0.314-0.154-0.579-0.217-0.792c1.35-1.232,2.906-2.608,3.32-2.793c0.773-0.343,0.396,0.591,0.086,0.965
	c-0.311,0.375-1.543,1.608-1.543,1.608S50.766,79.449,50.174,80h3.23c1.088-0.83,2.559-1.848,4.16-2.555
	c2.918-1.287,3.346-4.247,3.346-4.247c5.277-6.305,8.107-11.839,10.424-16.985c2.141-4.756,3.291-8.458,3.217-10.293
	C74.479,44.085,70.316,36.69,67.473,31.637z M48.412,73.064c-0.006-0.107-0.021-0.329-0.043-0.637
	C48.857,72.309,48.744,72.626,48.412,73.064z M63.227,51.539c-1.801,3.773-2.4,5.061-6.604,14.411
	c-1.545,1.974-3.26,3.174-3.26,3.174s-0.943,0-3.604,0.257c-0.514,0.051-1.055,0.189-1.598,0.382c0-0.003,0-0.007-0.002-0.012
	c-0.184-2.173-0.457-4.87-0.77-6.438c-0.588-2.936-0.658-8.144-0.514-10.05c0.146-1.909,1.031-3.358,1.615-6.53
	c0.582-3.172,0.754-5.402,0.926-7.033c0.289-2.751,1.029-7.891,1.543-8.062c0.516-0.172,3.518-0.43,5.404,3.002
	c1.887,4.803,7.463,12.096,7.463,12.096C64.428,48.45,65.029,47.764,63.227,51.539z"/>
<g>
	<path style="fill:none;" d="M57.401,36.877c0,0-0.083-0.209-0.229-0.535c0.003,0.276,0.042,0.533,0.159,0.74
		c0.345,0.612,1.217,0.962,2.394,0.962c1.299,0,2.773-0.428,4.151-1.204c2.902-1.636,4.293-4.239,3.598-5.474
		c-0.092-0.162-0.225-0.303-0.386-0.426l0.209,0.383L57.401,36.877z"/>
	<path d="M70.087,29.894c-0.881-1.562-2.674-2.462-4.925-2.485l1.926,3.532c0.161,0.124,0.294,0.264,0.386,0.426
		c0.695,1.234-0.695,3.837-3.598,5.474c-1.378,0.776-2.853,1.204-4.151,1.204c-1.177,0-2.049-0.351-2.394-0.962
		c-0.117-0.208-0.156-0.464-0.159-0.74c-0.354-0.786-1.094-2.27-2.027-3.284c-0.041,0.07-0.088,0.138-0.127,0.208
		c-1.034,1.865-1.144,3.793-0.3,5.29c0.892,1.582,2.717,2.489,5.007,2.489c1.807,0,3.804-0.565,5.624-1.591
		C69.658,37.025,71.739,32.826,70.087,29.894z"/>
	<path style="fill:#999999;" d="M57.642,34.721c0.645-1.163,1.843-2.297,3.287-3.111c1.378-0.777,2.853-1.205,4.151-1.205
		c0.865,0,1.561,0.192,2.008,0.536l-1.926-3.532c-0.028,0-0.054-0.004-0.082-0.004c-1.807,0-3.805,0.565-5.624,1.591
		c-1.86,1.048-3.378,2.485-4.312,4.062c0.934,1.015,1.673,2.498,2.027,3.284C57.168,35.865,57.313,35.312,57.642,34.721z"/>
</g>
<g>
</g>
<g>
</g>
<g>
</g>
<g>
</g>
<g>
</g>
<g>
</g>
<g>
</g>
<g>
</g>
<g>
</g>
<g>
</g>
<g>
</g>
<g>
</g>
<g>
</g>
<g>
</g>
<g>
</g>
</svg>
